<?xml version="1.0" standalone="no"?>
<!DOCTYPE svg PUBLIC "-//W3C//DTD SVG 20010904//EN"
 "http://www.w3.org/TR/2001/REC-SVG-20010904/DTD/svg10.dtd">


<svg id="logo" width="753px" height="205px"  version="1.0" xmlns="http://www.w3.org/2000/svg"
 width="466.000000pt" height="535.000000pt" viewBox="0 0 466.000000 535.000000"
 preserveAspectRatio="xMidYMid meet">
<metadata>
Created by potrace 1.16, written by Peter Selinger 2001-2019
</metadata>
<g transform="translate(0.000000,535.000000) scale(0.100000,-0.100000)"
fill="#000000" stroke="none">
<path d="M1838 4540 c-72 -18 -154 -68 -207 -126 -83 -90 -101 -118 -128 -196
-24 -66 -26 -91 -31 -273 -7 -316 13 -457 100 -694 17 -47 48 -122 69 -168 41
-86 274 -525 410 -769 96 -173 129 -248 176 -406 l36 -123 4 -248 c5 -269 0
-318 -43 -375 -89 -116 -281 -94 -349 41 l-25 51 0 343 c0 322 -1 342 -17 336
-10 -3 -77 -34 -149 -69 -209 -100 -209 -100 -209 -459 1 -301 8 -339 87 -441
135 -174 223 -208 533 -202 184 3 192 4 250 31 130 61 236 171 274 285 20 57
21 84 21 389 0 352 -4 390 -56 548 -36 109 -121 316 -138 335 -14 15 -76 134
-76 145 0 3 84 5 186 5 l186 0 29 -29 29 -29 0 -506 0 -506 125 0 c146 0 187
14 226 77 l24 38 0 1120 c0 1108 0 1120 -20 1155 -34 59 -71 70 -222 70 l-133
0 0 -500 0 -500 -319 0 c-301 0 -320 1 -325 18 -4 10 -22 45 -42 78 -75 123
-174 333 -207 440 -51 161 -59 231 -55 454 3 185 4 197 27 237 87 151 309 140
376 -19 12 -30 15 -83 15 -272 l0 -235 92 44 c50 25 98 45 105 45 34 0 114 53
140 92 l28 42 0 185 0 186 -36 75 c-50 103 -137 196 -231 246 l-73 39 -210 2
c-115 1 -227 -2 -247 -7z"/>
<path d="M1024 3880 c-30 -12 -62 -56 -74 -101 -7 -24 -9 -412 -8 -1136 l3
-1098 24 -39 c42 -67 67 -76 219 -76 l132 0 0 535 0 535 224 0 224 0 -48 98
c-27 53 -69 141 -95 195 l-46 97 -89 0 c-49 0 -100 4 -115 10 -53 20 -55 38
-55 535 l0 455 -137 -1 c-76 0 -148 -4 -159 -9z"/>
</g>
</svg>

